<svg width="32" height="32" viewBox="0 0 32 32" fill="none" xmlns="http://www.w3.org/2000/svg">
<path d="M10.6667 7.66669C10.1201 7.66669 9.66675 7.21335 9.66675 6.66669V2.66669C9.66675 2.12002 10.1201 1.66669 10.6667 1.66669C11.2134 1.66669 11.6667 2.12002 11.6667 2.66669V6.66669C11.6667 7.21335 11.2134 7.66669 10.6667 7.66669ZM21.3334 7.66669C20.7867 7.66669 20.3334 7.21335 20.3334 6.66669V2.66669C20.3334 2.12002 20.7867 1.66669 21.3334 1.66669C21.8801 1.66669 22.3334 2.12002 22.3334 2.66669V6.66669C22.3334 7.21335 21.8801 7.66669 21.3334 7.66669Z" fill="black"/>
<path d="M20 30.3334H12C4.50667 30.3334 3 26.8 3 21.0934V12.8667C3 6.54669 5.13333 3.97335 10.6133 3.66669H21.3867C26.8667 3.97335 29 6.54669 29 12.8667V21.0934C29 26.8 27.4933 30.3334 20 30.3334ZM10.6667 5.66669C6.93333 5.88002 5 7.05335 5 12.8667V21.0934C5 26.2 5.97333 28.3334 12 28.3334H20C26.0267 28.3334 27 26.2 27 21.0934V12.8667C27 7.06669 25.08 5.88002 21.3067 5.66669H10.6667Z" fill="black"/>
<path d="M27.6666 24.4693H4.33325C3.78659 24.4693 3.33325 24.016 3.33325 23.4693C3.33325 22.9227 3.78659 22.4693 4.33325 22.4693H27.6666C28.2133 22.4693 28.6666 22.9227 28.6666 23.4693C28.6666 24.016 28.2133 24.4693 27.6666 24.4693ZM15.9999 11C14.3599 11 12.9733 11.8933 12.9733 13.6267C12.9733 14.4533 13.3599 15.08 13.9466 15.48C13.1333 15.96 12.6666 16.7333 12.6666 17.64C12.6666 19.2933 13.9333 20.32 15.9999 20.32C18.0533 20.32 19.3333 19.2933 19.3333 17.64C19.3333 16.7333 18.8666 15.9467 18.0399 15.48C18.6399 15.0667 19.0133 14.4533 19.0133 13.6267C19.0133 11.8933 17.6399 11 15.9999 11ZM15.9999 14.7867C15.3066 14.7867 14.7999 14.3733 14.7999 13.72C14.7999 13.0533 15.3066 12.6667 15.9999 12.6667C16.6933 12.6667 17.1999 13.0533 17.1999 13.72C17.1999 14.3733 16.6933 14.7867 15.9999 14.7867ZM15.9999 18.6667C15.1199 18.6667 14.4799 18.2267 14.4799 17.4267C14.4799 16.6267 15.1199 16.2 15.9999 16.2C16.8799 16.2 17.5199 16.64 17.5199 17.4267C17.5199 18.2267 16.8799 18.6667 15.9999 18.6667Z" fill="black"/>
</svg>
