<svg width="32" height="32" viewBox="0 0 32 32" fill="none" xmlns="http://www.w3.org/2000/svg">
<path d="M11 7.66666C10.4533 7.66666 10 7.21332 10 6.66666V2.66666C10 2.11999 10.4533 1.66666 11 1.66666C11.5467 1.66666 12 2.11999 12 2.66666V6.66666C12 7.21332 11.5467 7.66666 11 7.66666ZM21 7.66666C20.4533 7.66666 20 7.21332 20 6.66666V2.66666C20 2.11999 20.4533 1.66666 21 1.66666C21.5467 1.66666 22 2.11999 22 2.66666V6.66666C22 7.21332 21.5467 7.66666 21 7.66666ZM16 18.7867C16.6933 18.7867 17.2 18.3733 17.2 17.72C17.2 17.0533 16.6933 16.6667 16 16.6667C15.3067 16.6667 14.8 17.0533 14.8 17.72C14.8 18.3733 15.3067 18.7867 16 18.7867ZM16 22.6667C16.8387 22.6667 17.52 22.112 17.52 21.4267C17.52 20.7427 16.8387 20.1867 16 20.1867C15.16 20.1867 14.48 20.7427 14.48 21.4267C14.48 22.112 15.16 22.6667 16 22.6667Z" fill="black"/>
<path d="M26.0933 5.99999C25.2133 5.34666 23.9466 5.97332 23.9466 7.07999V7.21332C23.9466 8.77332 22.8266 10.2133 21.2666 10.3733C19.4666 10.56 17.9466 9.14666 17.9466 7.38666V5.99999C17.9466 5.26666 17.3466 4.66666 16.6133 4.66666H15.3866C14.6533 4.66666 14.0533 5.26666 14.0533 5.99999V7.38666C14.0533 8.43999 13.5066 9.37332 12.6799 9.89332C12.5599 9.97332 12.4266 10.04 12.2933 10.1067C12.1733 10.1733 12.0399 10.2267 11.8933 10.2667C11.7333 10.32 11.5599 10.36 11.3733 10.3733C11.1599 10.4 10.9466 10.4 10.7333 10.3733C10.5466 10.36 10.3733 10.32 10.2133 10.2667C9.93686 10.1746 9.6727 10.0492 9.42659 9.89332C8.58659 9.30666 8.05325 8.29332 8.05325 7.21332V7.07999C8.05325 6.05332 6.95992 5.43999 6.09325 5.87999C6.07992 5.89332 6.06659 5.89332 6.05325 5.90666C5.99992 5.93332 5.95992 5.95999 5.90658 5.99999C5.86659 6.03999 5.81325 6.06666 5.77325 6.10666C5.39992 6.39999 5.06659 6.73332 4.78659 7.09332C4.63992 7.25332 4.51992 7.42666 4.41325 7.59999C4.27782 7.79497 4.15747 8.00001 4.05325 8.21332C4.02659 8.23999 4.01325 8.25332 4.01325 8.27999C3.93325 8.43999 3.85325 8.59999 3.79992 8.77332C3.75992 8.83999 3.74659 8.89332 3.71992 8.95999C3.63992 9.15999 3.58659 9.35999 3.53325 9.55999C3.47992 9.74666 3.43992 9.94666 3.41325 10.1467C3.36477 10.4824 3.33805 10.8208 3.33325 11.16V22.84C3.33325 24.5621 4.01737 26.2137 5.23511 27.4315C6.45284 28.6492 8.10445 29.3333 9.82658 29.3333H22.1733C23.026 29.3333 23.8703 29.1654 24.6581 28.839C25.4459 28.5127 26.1618 28.0344 26.7647 27.4315C27.3677 26.8285 27.846 26.1127 28.1723 25.3249C28.4986 24.5371 28.6666 23.6927 28.6666 22.84V11.16C28.6666 9.03999 27.6532 7.18666 26.0933 5.99999ZM15.9999 24.3333C13.9333 24.3333 12.6666 23.3067 12.6666 21.6533C12.6666 20.7467 13.1333 19.96 13.9466 19.4933C13.3599 19.08 12.9733 18.4667 12.9733 17.6267C12.9733 15.8933 14.3599 15 15.9999 15C17.6399 15 19.0133 15.8933 19.0133 17.6267C19.0133 18.4667 18.6399 19.08 18.0399 19.4933C18.8666 19.96 19.3333 20.7467 19.3333 21.6533C19.3333 23.3067 18.0533 24.3333 15.9999 24.3333Z" fill="black"/>
</svg>
