<svg width="38" height="38" viewBox="0 0 38 38" fill="none" xmlns="http://www.w3.org/2000/svg">
<g opacity="0.72">
<path d="M18.9893 37.0985C29.2116 37.0985 37.4985 28.8116 37.4985 18.5893C37.4985 8.36687 29.2116 0.0799866 18.9893 0.0799866C8.76686 0.0799866 0.47998 8.36687 0.47998 18.5893C0.47998 21.5502 1.17523 24.3486 2.41135 26.8305C2.73985 27.49 2.84919 28.2439 2.65874 28.9556L1.55631 33.0759C1.07774 34.8645 2.71407 36.5007 4.50269 36.0222L8.62293 34.9198C9.33469 34.7294 10.0885 34.8387 10.7481 35.1671C13.2299 36.4033 16.0283 37.0985 18.9893 37.0985Z" fill="black"/>
<path fill-rule="evenodd" clip-rule="evenodd" d="M18.99 8.91891C18.1467 8.91891 17.463 9.60259 17.463 10.4459V26.7341C17.463 27.5774 18.1467 28.2611 18.99 28.2611C19.8333 28.2611 20.517 27.5774 20.517 26.7341V10.4459C20.517 9.60259 19.8333 8.91891 18.99 8.91891Z" fill="white"/>
<path fill-rule="evenodd" clip-rule="evenodd" d="M10.8459 12.9909C10.0025 12.9909 9.31885 13.6746 9.31885 14.518V22.6621C9.31885 23.5053 10.0025 24.1891 10.8459 24.1891C11.6892 24.1891 12.3729 23.5053 12.3729 22.6621V14.518C12.3729 13.6746 11.6892 12.9909 10.8459 12.9909Z" fill="white"/>
<path d="M25.6071 14.518C25.6071 13.6746 26.2908 12.9909 27.1341 12.9909C27.9774 12.9909 28.6611 13.6746 28.6611 14.518V22.6621C28.6611 23.5053 27.9774 24.1891 27.1341 24.1891C26.2908 24.1891 25.6071 23.5053 25.6071 22.6621V14.518Z" fill="white"/>
</g>
</svg>
