<svg width="37" height="37" viewBox="0 0 37 37" fill="none" xmlns="http://www.w3.org/2000/svg">
<path d="M3.08325 9.98634C3.08325 7.86374 3.08325 6.80246 3.42501 5.9635C3.89486 4.81012 4.81003 3.89495 5.96341 3.4251C6.80237 3.08334 7.86365 3.08334 9.98625 3.08334C12.1088 3.08334 13.1701 3.08334 14.0091 3.4251C15.1625 3.89495 16.0777 4.81012 16.5476 5.9635C16.8892 6.80246 16.8892 7.86374 16.8892 9.98634C16.8892 12.1089 16.8892 13.1702 16.5476 14.0092C16.0777 15.1626 15.1625 16.0777 14.0091 16.5476C13.1701 16.8893 12.1088 16.8893 9.98625 16.8893C7.86365 16.8893 6.80237 16.8893 5.96341 16.5476C4.81003 16.0777 3.89486 15.1626 3.42501 14.0092C3.08325 13.1702 3.08325 12.1089 3.08325 9.98634Z" fill="white"/>
<path d="M3.08325 27.0137C3.08325 24.8911 3.08325 23.8298 3.42501 22.9909C3.89486 21.8375 4.81003 20.9223 5.96341 20.4525C6.80237 20.1107 7.86365 20.1107 9.98625 20.1107C12.1088 20.1107 13.1701 20.1107 14.0091 20.4525C15.1625 20.9223 16.0777 21.8375 16.5476 22.9909C16.8892 23.8298 16.8892 24.8911 16.8892 27.0137C16.8892 29.1363 16.8892 30.1975 16.5476 31.0365C16.0777 32.19 15.1625 33.1051 14.0091 33.5749C13.1701 33.9166 12.1088 33.9166 9.98625 33.9166C7.86365 33.9166 6.80237 33.9166 5.96341 33.5749C4.81003 33.1051 3.89486 32.19 3.42501 31.0365C3.08325 30.1975 3.08325 29.1363 3.08325 27.0137Z" fill="white"/>
<path d="M20.1108 27.0137C20.1108 24.8911 20.1108 23.8298 20.4526 22.9909C20.9225 21.8375 21.8377 20.9223 22.991 20.4525C23.83 20.1107 24.8912 20.1107 27.0138 20.1107C29.1365 20.1107 30.1978 20.1107 31.0366 20.4525C32.1901 20.9223 33.1052 21.8375 33.5751 22.9909C33.9169 23.8298 33.9169 24.8911 33.9169 27.0137C33.9169 29.1363 33.9169 30.1975 33.5751 31.0365C33.1052 32.19 32.1901 33.1051 31.0366 33.5749C30.1978 33.9166 29.1365 33.9166 27.0138 33.9166C24.8912 33.9166 23.83 33.9166 22.991 33.5749C21.8377 33.1051 20.9225 32.19 20.4526 31.0365C20.1108 30.1975 20.1108 29.1363 20.1108 27.0137Z" fill="white"/>
<path fill-rule="evenodd" clip-rule="evenodd" d="M25.8577 14.6114C25.8577 15.25 26.3752 15.7677 27.0139 15.7677C27.6525 15.7677 28.1702 15.25 28.1702 14.6114V11.1426H31.6389C32.2775 11.1426 32.7952 10.625 32.7952 9.98639C32.7952 9.34782 32.2775 8.83014 31.6389 8.83014H28.1702V5.36139C28.1702 4.72282 27.6525 4.20514 27.0139 4.20514C26.3752 4.20514 25.8577 4.72282 25.8577 5.36139V8.83014H22.3889C21.7502 8.83014 21.2327 9.34782 21.2327 9.98639C21.2327 10.625 21.7502 11.1426 22.3889 11.1426H25.8577V14.6114Z" fill="white"/>
</svg>
