<svg width="23" height="23" viewBox="0 0 23 23" fill="none"
    xmlns="http://www.w3.org/2000/svg">

    <defs>
        <clipPath id="clip0_59_369">
            <rect width="23" height="23" fill="white"/>
        </clipPath>
    </defs>
    <g clip-path="url(#clip0_59_369)">
        <path fill-rule="evenodd" clip-rule="evenodd" d="M4.94851 11.5C4.94851 10.7696 5.06982 10.0694 5.28633 9.41262L1.49668 6.51871C0.758104 8.01831 0.34198 9.70804 0.34198 11.5C0.34198 13.2904 0.757592 14.9791 1.49515 16.4777L5.28274 13.5782C5.06828 12.9245 4.94851 12.2268 4.94851 11.5Z" fill="#FBBC05"/>
        <path fill-rule="evenodd" clip-rule="evenodd" d="M11.6024 4.85555C13.1891 4.85555 14.6223 5.41778 15.7483 6.33778L19.0241 3.06667C17.0279 1.32889 14.4687 0.255554 11.6024 0.255554C7.1525 0.255554 3.32806 2.80038 1.4967 6.51871L5.28635 9.41262C6.15954 6.762 8.6486 4.85555 11.6024 4.85555Z" fill="#EB4335"/>
        <path fill-rule="evenodd" clip-rule="evenodd" d="M11.6024 18.1444C8.6486 18.1444 6.15954 16.238 5.28635 13.5874L1.4967 16.4808C3.32806 20.1996 7.1525 22.7444 11.6024 22.7444C14.3489 22.7444 16.9711 21.7692 18.9391 19.942L15.3419 17.1611C14.3269 17.8005 13.0489 18.1444 11.6024 18.1444Z" fill="#34A853"/>
        <path fill-rule="evenodd" clip-rule="evenodd" d="M22.351 11.5C22.351 10.8356 22.2486 10.12 22.0951 9.45557H11.6024V13.8H17.6421C17.3401 15.2812 16.5181 16.42 15.3419 17.1611L18.9391 19.942C21.0064 18.0233 22.351 15.1652 22.351 11.5Z" fill="#4285F4"/>
    </g>
</svg>
