<svg width="48" height="39" viewBox="0 0 48 39" fill="none" xmlns="http://www.w3.org/2000/svg">
<g opacity="0.72">
<path d="M47.0527 32.5292H41.8844L43.7181 32.0377C44.1387 31.9249 44.3881 31.4925 44.276 31.0719L43.0506 26.4993V26.4984L42.234 23.4495H42.2331L36.107 0.585265C35.9957 0.163892 35.5625 -0.086232 35.1412 0.0274101L27.5189 2.06945C27.3177 2.12309 27.1449 2.25568 27.0399 2.4372C26.935 2.61788 26.9073 2.83333 26.9611 3.03527L28.1864 7.60787V7.60861L28.6567 9.36428C28.0184 9.04315 27.2996 8.85775 26.5373 8.85775H3.65481C3.37075 8.85775 3.10879 9.01078 2.96833 9.25776C2.82787 9.50548 2.83185 9.80849 2.97859 10.0523L3.88838 11.5689C4.63644 12.8164 4.63644 14.3668 3.88838 15.6143L3.20819 16.7482H1.28765C1.00359 16.7482 0.741628 16.9012 0.601171 17.1482C0.460713 17.3959 0.464689 17.6989 0.611434 17.9427L1.52122 19.4593C2.26928 20.7068 2.26928 22.2573 1.52122 23.5047L0.611434 25.0213C0.464689 25.2651 0.460713 25.5689 0.601171 25.8159C0.741628 26.0637 1.00359 26.2167 1.28765 26.2167H3.20819L3.88838 27.3498C4.63644 28.5973 4.63644 30.1478 3.88838 31.3952L3.20819 32.5291H1.28765C0.852126 32.5291 0.498624 32.8826 0.498624 33.3181V38.0524C0.498624 38.4879 0.852126 38.8414 1.28765 38.8414H47.0527C47.489 38.8414 47.8417 38.4879 47.8417 38.0524V33.3181C47.8418 32.8828 47.489 32.5292 47.0527 32.5292ZM37.0483 22.3892C36.9797 22.4073 36.911 22.416 36.8431 22.416C36.4943 22.416 36.1756 22.1833 36.0816 21.8314L33.6308 12.6847C33.5187 12.2641 33.7681 11.8309 34.1895 11.7189C34.61 11.6045 35.0432 11.8553 35.1553 12.2767L37.6062 21.4226C37.7182 21.8439 37.4689 22.2763 37.0483 22.3892ZM36.0123 6.32877L36.421 7.85318L30.3232 9.48726L29.9152 7.96202L36.0123 6.32877ZM34.7869 1.75544L35.6044 4.80436L29.5066 6.43844L28.6899 3.38952L34.7869 1.75544ZM5.24163 10.7569L5.04912 10.4358H26.5374C27.9758 10.4358 29.1792 11.4087 29.5579 12.7264L29.6352 13.016C29.6707 13.203 29.6936 13.3947 29.6936 13.592C29.6936 15.3318 28.278 16.7482 26.5374 16.7482H24.1702H5.04903L5.24154 16.427C6.29104 14.6777 6.29104 12.5055 5.24163 10.7569ZM24.9592 21.4826C24.9592 21.9181 24.6066 22.2716 24.1702 22.2716H6.81099C6.37547 22.2716 6.02197 21.9181 6.02197 21.4826C6.02197 21.047 6.37547 20.6935 6.81099 20.6935H24.1701C24.6066 20.6935 24.9592 21.047 24.9592 21.4826ZM26.5374 32.5292H5.04903L5.24154 32.2081C6.29095 30.4588 6.29095 28.2865 5.24154 26.5379L5.04903 26.2168H24.1701H26.5373C28.278 26.2168 29.6935 27.6324 29.6935 29.373C29.6936 31.1129 28.278 32.5292 26.5374 32.5292ZM30.0565 32.5292C30.8093 31.6905 31.2716 30.5858 31.2716 29.3731C31.2716 27.1211 29.6903 25.2353 27.5804 24.7579C28.3986 23.9066 28.9044 22.7537 28.9044 21.4826C28.9044 20.2114 28.3986 19.0578 27.5804 18.2065C28.7892 17.9334 29.8237 17.1988 30.4873 16.1959L34.8641 32.5293H30.0565V32.5292ZM34.8161 26.2547L40.9139 24.6205L41.3219 26.1449L35.2248 27.7791L34.8161 26.2547ZM35.6327 29.3029L41.7306 27.6695L42.5472 30.7176L36.4502 32.3518L35.6327 29.3029Z" fill="black"/>
<path d="M26.5377 28.5839H9.17855C8.7422 28.5839 8.38953 28.9374 8.38953 29.3729C8.38953 29.8084 8.7422 30.1619 9.17855 30.1619H26.5377C26.974 30.1619 27.3267 29.8084 27.3267 29.3729C27.3268 28.9374 26.974 28.5839 26.5377 28.5839Z" fill="white"/>
<path d="M9.17855 14.3809H26.5377C26.974 14.3809 27.3267 14.0274 27.3267 13.5919C27.3267 13.1564 26.974 12.8029 26.5377 12.8029H9.17855C8.7422 12.8029 8.38953 13.1564 8.38953 13.5919C8.38953 14.0274 8.7422 14.3809 9.17855 14.3809Z" fill="white"/>
</g>
</svg>
