<svg width="36" height="36" viewBox="0 0 36 36" fill="none" xmlns="http://www.w3.org/2000/svg">

<defs>
<clipPath id="clip0_118_424">
<rect width="36" height="36" fill="white"/>
</clipPath>
</defs>
<g clip-path="url(#clip0_118_424)">
<path d="M33.1725 19.423L16.477 2.9181L16.4815 2.92288C14.5997 1.04019 12.1218 0.0937127 9.65482 0.0954002C7.18784 0.093783 4.70974 1.04019 2.82776 2.92295C0.944579 4.80556 -0.00126436 7.28296 1.26845e-06 9.75015C-0.00126436 12.2174 0.944579 14.6953 2.82783 16.5775L19.5228 33.0819L19.5183 33.0772C21.4007 34.9599 23.8781 35.9057 26.345 35.9047C28.8123 35.9057 31.2896 34.9599 33.172 33.0777C35.0553 31.1944 36.0011 28.716 36.0001 26.2493C36.0011 23.7826 35.0555 21.3052 33.1725 19.423ZM5.59716 12.5298C3.9979 10.9309 3.9979 8.29517 5.61734 6.67602C6.40139 5.89168 7.4442 5.46017 8.5538 5.46017L5.59716 12.5298ZM31.5459 31.4515C30.1069 32.8894 28.2314 33.6042 26.345 33.6047C24.4588 33.6042 22.583 32.8894 21.1437 31.451L21.14 31.4473L21.1395 31.4462L13.4468 23.8415C13.4694 23.6933 13.5034 23.5194 13.5526 23.3266C13.7306 22.614 14.089 21.6543 14.6297 20.6393C15.4399 19.1142 16.6604 17.4606 18.2737 16.1858C19.8795 14.919 21.8495 14.0134 24.2912 13.8763L31.543 21.0452L31.5465 21.0479C32.9844 22.4874 33.6991 24.3627 33.7007 26.2491C33.6991 28.1357 32.9849 30.0115 31.5459 31.4515Z" fill="white"/>
</g>

</svg>
