<svg width="37" height="37" viewBox="0 0 37 37" fill="none" xmlns="http://www.w3.org/2000/svg">
<g clip-path="url(#clip0_118_394)">
<path d="M22.741 15.2278C22.1365 15.2278 21.655 15.1113 21.268 14.9318C20.689 14.6637 20.3139 14.2506 20.0779 13.8381C19.9603 13.633 19.8788 13.429 19.8276 13.2495C19.7765 13.0706 19.7563 12.9131 19.7569 12.8191C19.7569 12.6396 19.6119 12.4946 19.4329 12.4946C19.254 12.4946 19.1089 12.6396 19.1089 12.8191C19.1089 12.9357 19.1232 13.0641 19.1517 13.2055C19.2016 13.4534 19.2943 13.7387 19.4472 14.0341C19.6748 14.4746 20.0374 14.9377 20.5796 15.2884C20.7157 15.3782 20.8613 15.4584 21.0194 15.5298C21.0444 15.6373 21.0794 15.8258 21.0789 16.0547C21.0789 16.2204 21.0605 16.4048 21.0106 16.5944C20.9605 16.784 20.8792 16.9766 20.7484 17.165C20.6479 17.313 20.6836 17.5139 20.831 17.6156C20.9778 17.7173 21.1794 17.6811 21.281 17.5337C21.4581 17.2786 21.5705 17.0129 21.6371 16.7603C21.7031 16.507 21.7262 16.2657 21.7262 16.0547C21.7262 15.9494 21.7203 15.8502 21.712 15.761C22.0234 15.833 22.3647 15.8757 22.7409 15.8757C22.9198 15.8757 23.0649 15.7308 23.0649 15.5518C23.065 15.3729 22.92 15.2278 22.741 15.2278Z" fill="#0E0E0E"/>
<path d="M24.1771 11.0597C24.0214 10.9729 23.8246 11.0264 23.7361 11.1827C23.6481 11.3379 23.7034 11.5353 23.8591 11.6238C24.0981 11.7605 24.2432 11.9115 24.3407 12.0679C23.9412 12.2081 23.5881 12.2664 23.2748 12.2664C22.8177 12.2658 22.4438 12.1451 22.1275 11.9597C21.813 11.7748 21.5592 11.521 21.3661 11.2588C21.0481 10.8249 20.6349 10.4391 20.1475 10.1574C19.6601 9.87683 19.0971 9.70087 18.4921 9.70087C17.9624 9.70087 17.4042 9.83759 16.8502 10.1413C16.6243 10.265 16.4276 10.41 16.257 10.5688C15.5835 10.8279 15.0039 10.9219 14.5124 10.9219C13.8128 10.9206 13.2908 10.734 12.9413 10.5497C12.7672 10.457 12.6369 10.3654 12.5526 10.2989C12.5104 10.265 12.4789 10.2389 12.4598 10.221L12.4408 10.2026L12.4372 10.1991C12.313 10.0719 12.109 10.0683 11.9801 10.1918C11.8517 10.3161 11.8481 10.5206 11.9717 10.6496C11.9907 10.6681 12.2125 10.8951 12.6387 11.1216C12.8253 11.2203 13.0536 11.3172 13.3175 11.3962C13.2474 11.4949 13.1516 11.6399 13.0471 11.8229C12.8468 12.1767 12.6167 12.6736 12.5002 13.258C12.4639 13.4345 12.5781 13.6045 12.7534 13.6396C12.9288 13.6753 13.0988 13.5605 13.1338 13.3851C13.232 12.8924 13.434 12.4537 13.6106 12.1428C13.6992 11.9858 13.7806 11.8628 13.8394 11.7784C13.8691 11.7374 13.8923 11.7047 13.9084 11.6845C13.9161 11.6744 13.9221 11.6673 13.9256 11.6625L13.9304 11.6577L13.9309 11.6566C13.9601 11.6203 13.9797 11.5793 13.991 11.5353C14.1556 11.5567 14.3286 11.5686 14.5123 11.5686C14.8523 11.5686 15.2256 11.5282 15.6274 11.4373C15.4271 11.8659 15.3457 12.3141 15.345 12.7242C15.3463 13.1367 15.4247 13.5124 15.5657 13.8109C15.6423 13.972 15.8355 14.0416 15.9966 13.9648C16.1577 13.8881 16.2272 13.6956 16.1505 13.5338C16.0607 13.3471 15.9917 13.0511 15.993 12.7242C15.9924 12.3711 16.0696 11.9835 16.2522 11.6286C16.4358 11.2744 16.72 10.9516 17.1616 10.709C17.6271 10.4534 18.0729 10.3488 18.492 10.3476C18.9705 10.3488 19.421 10.4866 19.8241 10.7185C20.2259 10.9498 20.5766 11.2767 20.8441 11.6411C21.0795 11.9626 21.3945 12.2789 21.7994 12.5179C22.2035 12.7568 22.7004 12.9144 23.2747 12.9131C23.6546 12.9131 24.0671 12.8454 24.5117 12.6945L24.5123 12.7171C24.5123 12.8758 24.4874 13.0202 24.4629 13.1225C24.4511 13.1724 24.4386 13.2134 24.4297 13.239C24.4255 13.2521 24.4225 13.2616 24.4201 13.2675L24.4184 13.2723V13.2729C24.3531 13.4387 24.4326 13.626 24.5985 13.6925C24.7649 13.7585 24.9534 13.6777 25.02 13.5124C25.0288 13.4892 25.1578 13.1653 25.1596 12.7172C25.1596 12.4603 25.1151 12.1584 24.9647 11.8606C24.8162 11.5613 24.5599 11.2755 24.1771 11.0597Z" fill="#0E0E0E"/>
<path d="M15.8675 8.64037C16.0905 8.37761 16.4074 8.17079 16.7681 8.03226C17.1289 7.89192 17.5308 7.8224 17.9077 7.8224C18.2738 7.8224 18.6157 7.88953 18.8653 8.00667C19.0288 8.08154 19.2207 8.01029 19.295 7.84856C19.37 7.68625 19.2992 7.49308 19.1375 7.41944C18.7761 7.25179 18.3504 7.17692 17.9076 7.17627C17.4523 7.17627 16.978 7.25771 16.5351 7.42775C16.094 7.59772 15.6838 7.85752 15.3748 8.22311C15.2583 8.35919 15.2755 8.56312 15.4116 8.67838C15.5483 8.79487 15.7534 8.7771 15.8675 8.64037Z" fill="#0E0E0E"/>
<path d="M20.869 0.0330258C12.8894 -0.458019 6.17001 4.56198 6.32213 12.7407L6.3162 13.4809L2.84948 19.6029C2.66281 19.9328 2.64612 20.3329 2.80431 20.6777C2.96243 21.0224 3.27628 21.2703 3.64837 21.344L5.79076 21.9349L6.46362 28.426C6.48147 29.0519 6.7597 29.6417 7.23166 30.0525C7.70363 30.4638 8.32663 30.6582 8.94841 30.5886L10.6591 30.7247C10.9932 30.6879 11.3273 30.7943 11.5775 31.019C11.8278 31.2425 11.9711 31.5629 11.9711 31.8988V37H26.446C26.446 37 26.446 34.5266 26.446 33.5398C26.446 32.5525 26.7872 30.2961 27.4327 29.2629C29.7795 25.5108 33.5994 23.5147 34.2438 15.8205C34.8887 8.12497 30.2961 0.613825 20.869 0.0330258ZM30.4994 13.2282C30.1748 13.7644 29.65 14.0984 29.0769 14.1971C28.901 14.228 28.7821 14.3944 28.8118 14.571C28.8433 14.7469 29.0104 14.8664 29.1863 14.8349C29.3177 14.8123 29.4473 14.7796 29.5751 14.7386C29.713 15.0245 29.7819 15.3318 29.7819 15.6379C29.7819 15.9648 29.7041 16.2894 29.5549 16.583C29.4062 16.8761 29.1863 17.1371 28.8974 17.3404C28.5342 17.5953 28.1211 17.7166 27.7109 17.7172C27.6783 17.7172 27.6461 17.7137 27.614 17.713C27.6069 17.6589 27.6003 17.6054 27.5908 17.5525V17.5519C27.5202 17.1768 27.3733 16.8333 27.173 16.5348L27.1486 16.4986L27.1153 16.4701C26.8704 16.2596 26.5452 15.9148 26.2944 15.5636C26.1678 15.3882 26.0603 15.2105 25.9877 15.0524C25.9146 14.8937 25.8807 14.7557 25.8819 14.6743C25.8819 14.638 25.8873 14.613 25.8944 14.5964C25.9003 14.5803 25.9063 14.5708 25.9188 14.5577C26.0448 14.4322 26.0448 14.2266 25.9188 14.0994C25.7922 13.9739 25.5877 13.9739 25.4617 14.0994C25.382 14.1779 25.3225 14.2729 25.2863 14.3734C25.2489 14.4721 25.2351 14.5749 25.2351 14.6742C25.2363 14.8983 25.3041 15.1111 25.3992 15.3215C25.5436 15.636 25.7588 15.9481 25.9924 16.2334C26.2118 16.5009 26.4442 16.7416 26.6535 16.9259C26.7979 17.1465 26.9031 17.3961 26.9548 17.6713C26.9762 17.7873 26.9875 17.9026 26.9899 18.0126V18.015C26.9899 18.0292 26.9905 18.0435 26.9905 18.0589C26.9905 18.5476 26.8163 19.0106 26.5173 19.375C26.2177 19.7388 25.7963 20.0033 25.2963 20.0972C25.1661 20.1221 25.0365 20.1341 24.9093 20.1341C24.2228 20.1346 23.5878 19.7893 23.2063 19.2412C23.4119 19.0326 23.5873 18.7883 23.7204 18.5106V18.5112C23.8863 18.1682 23.9737 17.8044 23.9891 17.4443C23.9969 17.2659 23.859 17.115 23.6806 17.1072C23.5011 17.0989 23.3507 17.238 23.3423 17.4163C23.3311 17.6909 23.2645 17.9661 23.1379 18.2289L23.1373 18.2301C23.0012 18.5112 22.8121 18.7466 22.5862 18.9327L22.5851 18.9333C22.213 19.237 21.7439 19.4047 21.2643 19.4047C20.9623 19.4047 20.6556 19.3387 20.3643 19.1978C19.8252 18.9387 19.4507 18.4768 19.2848 17.9483H19.2843C19.2213 17.748 19.1886 17.537 19.1886 17.3254C19.1886 17.0228 19.2546 16.7161 19.3954 16.4242C19.4733 16.2632 19.405 16.0694 19.2439 15.9927C19.0834 15.9148 18.8902 15.982 18.8123 16.1431C18.6293 16.5235 18.5407 16.9284 18.5407 17.3255C18.5407 17.5181 18.5633 17.7083 18.6025 17.8943C18.3499 18.0322 18.0651 18.1208 17.7572 18.1427H17.7566C17.7061 18.1463 17.6568 18.1486 17.6068 18.1486C17.1206 18.1486 16.6706 17.9798 16.3139 17.6939C16.0019 17.4443 15.763 17.1084 15.6357 16.7172C15.8628 16.4932 16.0518 16.2298 16.1903 15.938C16.2664 15.7762 16.1974 15.5836 16.0358 15.5076C15.8747 15.4309 15.6803 15.4998 15.6048 15.6621C15.477 15.9332 15.2903 16.1739 15.0627 16.3659C14.7381 16.64 14.3291 16.8159 13.8738 16.8487H13.8732C13.8227 16.8522 13.7734 16.8546 13.7241 16.8546C12.6969 16.8546 11.8195 16.0955 11.6709 15.0802L11.6703 15.0773V15.0755C11.662 15.0268 11.6566 14.9763 11.6531 14.9239C11.6495 14.8746 11.6477 14.8235 11.6477 14.7736C11.6477 14.6433 11.6602 14.5144 11.6834 14.3901C11.7149 14.2141 11.5991 14.0453 11.4231 14.0127C11.2484 13.9812 11.079 14.0959 11.0457 14.2718C11.0165 14.4346 11.0005 14.6023 11.0005 14.7735L11.0011 14.7931C10.7099 14.7604 10.4275 14.667 10.1748 14.519C9.85498 14.3324 9.58333 14.059 9.39551 13.7082C9.22851 13.3949 9.14938 13.0615 9.14938 12.731C9.14938 12.3042 9.28198 11.8852 9.52631 11.535C9.62084 11.6681 9.72721 11.7935 9.84667 11.9112C10.1201 12.1793 10.4364 12.3778 10.771 12.5074C10.938 12.5728 11.1248 12.4895 11.1895 12.3219C11.2549 12.1555 11.1711 11.9683 11.0052 11.9034C10.749 11.8047 10.5088 11.6538 10.3008 11.4493V11.4488C10.1165 11.2692 9.97385 11.0647 9.87218 10.8454C9.74145 10.5672 9.67605 10.2647 9.67605 9.96449C9.67655 9.43782 9.87275 8.91592 10.2686 8.51173C10.6057 8.16811 11.0301 7.96714 11.4705 7.906H11.4711H11.4723C11.5662 7.89408 11.6601 7.88758 11.754 7.88758C12.2796 7.88815 12.802 8.08616 13.2075 8.48146C13.3353 8.60568 13.5397 8.60445 13.6652 8.47611C13.7901 8.34892 13.7877 8.14441 13.6604 8.01896C13.1444 7.51367 12.4763 7.25511 11.8075 7.24326C11.883 6.93353 12.0281 6.64533 12.2314 6.40273C12.5137 6.06634 12.8995 5.81782 13.3608 5.71144C13.5178 5.67639 13.6723 5.65854 13.8262 5.65854C14.0973 5.65854 14.3612 5.71318 14.6049 5.81189C14.536 6.05326 14.4979 6.30648 14.4979 6.56923C14.4979 6.74751 14.6424 6.89197 14.8213 6.89197C15.0001 6.89197 15.1446 6.74751 15.1446 6.56923C15.1446 6.28624 15.2023 6.01582 15.3034 5.77034C15.4597 5.39463 15.7242 5.07485 16.0565 4.84895C16.39 4.62305 16.7889 4.49174 17.2222 4.49174C17.8463 4.49174 18.4033 4.76455 18.7849 5.20023C19.1065 5.56583 19.2997 6.04372 19.2997 6.56923C19.2997 6.74751 19.4454 6.89197 19.6237 6.89197C19.8026 6.89197 19.9482 6.74751 19.9482 6.56923C19.9482 5.97116 19.7545 5.4166 19.4269 4.96783C19.5946 4.736 19.808 4.53864 20.0552 4.39245C20.3643 4.21056 20.7239 4.10534 21.1098 4.10534C21.5543 4.10534 21.9627 4.24387 22.2998 4.4804C22.638 4.71699 22.902 5.05231 23.0512 5.4416H23.0506C23.1386 5.67285 23.1868 5.9213 23.1868 6.18348C23.1868 6.36183 23.3324 6.5068 23.5107 6.5068C23.6891 6.5068 23.8353 6.36183 23.8353 6.18348C23.8353 5.91595 23.7942 5.65862 23.7223 5.41429C24.1063 5.05765 24.6146 4.85553 25.1394 4.85553C25.4135 4.85553 25.6917 4.90966 25.9603 5.02434C26.3348 5.18665 26.6356 5.44283 26.8502 5.75552C27.0648 6.0688 27.1908 6.43612 27.2128 6.81653C27.2152 6.85577 27.217 6.89443 27.217 6.9336C27.2158 7.20828 27.1617 7.48527 27.0464 7.75454C26.9757 7.91865 27.0517 8.10885 27.2158 8.17895C27.3804 8.2497 27.57 8.17418 27.6414 8.01014C27.7615 7.73076 27.8304 7.44242 27.8536 7.153C28.171 7.17554 28.4801 7.27187 28.7536 7.43353C29.0656 7.61781 29.3325 7.88765 29.5145 8.23358C29.6738 8.53616 29.7486 8.85774 29.7493 9.17636C29.7493 9.32198 29.7314 9.46644 29.7 9.60793C29.5062 9.53184 29.3041 9.48074 29.1026 9.45097C28.9266 9.42662 28.7619 9.55026 28.7382 9.72739C28.7126 9.90458 28.8363 10.068 29.0122 10.0924C29.2161 10.1215 29.4164 10.1798 29.6078 10.2701C29.6412 10.3255 29.6923 10.3712 29.7564 10.3992C29.7957 10.4164 29.8379 10.4247 29.8789 10.4247C29.9984 10.5044 30.1071 10.5941 30.2041 10.6922L30.2047 10.6928C30.5934 11.0845 30.802 11.6129 30.802 12.1533C30.802 12.5202 30.7051 12.8911 30.4994 13.2282Z" fill="#0E0E0E"/>
<path d="M27.1373 10.3666C26.9768 10.2281 26.8044 10.1146 26.6219 10.0349C26.4388 9.95407 26.2462 9.90594 26.0495 9.90594C25.8705 9.90594 25.7261 10.051 25.7261 10.2299C25.7261 10.4088 25.8705 10.5533 26.0495 10.5533C26.1683 10.5533 26.3181 10.5943 26.4774 10.6859C26.7146 10.822 26.9613 11.0669 27.1397 11.3724C27.3204 11.6785 27.4357 12.0418 27.4345 12.418C27.4333 12.8312 27.3031 13.2628 26.95 13.6913C26.8371 13.8286 26.8561 14.0331 26.994 14.1466C27.1319 14.2614 27.3364 14.2412 27.45 14.1044C27.894 13.5676 28.0836 12.9733 28.083 12.418C28.083 12.0804 28.0141 11.757 27.9011 11.4622C27.7299 11.0205 27.4577 10.6436 27.1373 10.3666Z" fill="#0E0E0E"/>
<path d="M24.8987 8.89891C24.0088 8.89891 23.2949 8.57083 22.8003 8.14222C22.553 7.92817 22.364 7.68926 22.2398 7.45982C22.1137 7.23095 22.0566 7.01278 22.0579 6.84932C22.0579 6.67104 21.9128 6.526 21.7345 6.526C21.5556 6.526 21.4105 6.67104 21.4105 6.84932C21.4117 7.15312 21.5068 7.46574 21.6709 7.76897C21.8439 8.0852 22.096 8.39248 22.4152 8.66232C22.3509 8.75149 22.2624 8.86799 22.1482 8.99105C21.9021 9.26032 21.5467 9.55812 21.1216 9.70974C20.9546 9.76914 20.866 9.95399 20.926 10.1228C20.986 10.2916 21.1704 10.3784 21.3398 10.3189C21.9158 10.1121 22.3461 9.73467 22.6392 9.41301C22.7694 9.27036 22.8704 9.13905 22.9459 9.03441C23.4809 9.34291 24.1425 9.54685 24.8986 9.54685C25.0776 9.54685 25.222 9.40181 25.222 9.22346C25.222 9.0446 25.0776 8.89891 24.8987 8.89891Z" fill="#0E0E0E"/>
</g>
<defs>
<clipPath id="clip0_118_394">
<rect width="37" height="37" fill="white"/>
</clipPath>
</defs>
</svg>
