<svg width="45" height="45" viewBox="0 0 45 45" fill="none" xmlns="http://www.w3.org/2000/svg">
<path d="M35.5636 39.8109C35.5636 40.3685 35.3421 40.9032 34.9478 41.2975C34.5535 41.6918 34.0188 41.9133 33.4612 41.9133C32.9037 41.9133 32.3689 41.6918 31.9746 41.2975C31.5804 40.9032 31.3589 40.3685 31.3589 39.8109V37.9772H35.5629L35.5636 39.8109Z" fill="black"/>
<path d="M30.0162 44.8052H24.0376L24.0467 41.8549H22.0435L22.0407 44.8052H16.0508V37.9772H30.0162V44.8052Z" fill="black"/>
<path d="M14.6615 39.8109C14.6615 40.3684 14.44 40.9031 14.0458 41.2973C13.6516 41.6915 13.117 41.9129 12.5595 41.9129C12.002 41.9129 11.4674 41.6915 11.0732 41.2973C10.679 40.9031 10.4575 40.3684 10.4575 39.8109V37.9772H14.6615V39.8109Z" fill="black"/>
<path d="M23.0127 0.494995C23.7259 0.495087 24.4321 0.635683 25.091 0.908751C25.7499 1.18182 26.3485 1.58201 26.8527 2.08647C27.3569 2.59093 27.7568 3.18977 28.0295 3.84879C28.3023 4.50782 28.4425 5.21411 28.4422 5.92734C28.4424 6.64047 28.3021 7.34666 28.0293 8.00556C27.7566 8.66447 27.3567 9.26318 26.8525 9.76751C26.3483 10.2718 25.7496 10.6719 25.0908 10.9448C24.432 11.2178 23.7258 11.3583 23.0127 11.3583C21.5721 11.3583 20.1906 10.786 19.1719 9.76739C18.1533 8.74876 17.5811 7.3672 17.5811 5.92664C17.5811 4.48607 18.1533 3.10452 19.1719 2.08589C20.1906 1.06726 21.5721 0.494995 23.0127 0.494995Z" fill="black"/>
<path d="M38.4588 35.8601H7.56348V17.8045H38.4588V35.8601ZM33.6332 19.2958H12.5064V34.3933H33.6332V19.2958Z" fill="black"/>
<path d="M24.0377 28.2199V29.5453H27.907C28.068 29.5453 28.3042 29.6902 28.3042 29.9405C28.3042 32.1975 28.0216 33.2606 26.8326 33.2606C25.5993 33.2606 25.3462 30.5909 24.0377 30.4151V32.9702H21.9698V30.4102C20.5966 30.5142 20.3751 33.2606 19.0933 33.2606C17.905 33.2606 17.6863 32.1975 17.6863 29.9405C17.6863 29.6902 17.9233 29.5453 18.0836 29.5453H21.9691V28.2199H17.9465C17.8356 28.2199 17.7293 28.1759 17.6509 28.0975C17.5725 28.0191 17.5285 27.9128 17.5285 27.8019C17.5285 27.691 17.5725 27.5847 17.6509 27.5063C17.7293 27.4279 17.8356 27.3839 17.9465 27.3839H21.9691V26.0585H17.4417C17.3306 26.0585 17.2241 26.0144 17.1456 25.9359C17.0671 25.8574 17.0229 25.7509 17.0229 25.6398C17.0229 25.5288 17.0671 25.4223 17.1456 25.3437C17.2241 25.2652 17.3306 25.2211 17.4417 25.2211H21.9691V23.8971H17.7194C17.6643 23.8972 17.6098 23.8864 17.5589 23.8654C17.508 23.8444 17.4618 23.8135 17.4229 23.7746C17.3839 23.7356 17.3531 23.6894 17.332 23.6385C17.311 23.5876 17.3002 23.5331 17.3003 23.478C17.3003 23.2488 17.4881 23.0583 17.7194 23.0583H21.9691V21.735H18.6398C18.5285 21.735 18.4217 21.6908 18.343 21.6121C18.2642 21.5333 18.22 21.4266 18.22 21.3152C18.22 21.2039 18.2642 21.0971 18.343 21.0184C18.4217 20.9397 18.5285 20.8955 18.6398 20.8955H21.9691V20.1635H24.037V20.8955H27.3663C27.4776 20.8955 27.5844 20.9397 27.6631 21.0184C27.7418 21.0971 27.786 21.2039 27.786 21.3152C27.786 21.4266 27.7418 21.5333 27.6631 21.6121C27.5844 21.6908 27.4776 21.735 27.3663 21.735H24.037V23.0576H28.2993C28.4105 23.0581 28.5169 23.1025 28.5955 23.1811C28.6741 23.2597 28.7185 23.3662 28.7191 23.4773C28.7192 23.5325 28.7084 23.5871 28.6873 23.638C28.6662 23.6889 28.6353 23.7352 28.5963 23.7741C28.5573 23.8131 28.511 23.8439 28.46 23.8649C28.409 23.8859 28.3544 23.8966 28.2993 23.8964H24.037V25.2204H28.5785C28.6895 25.2204 28.796 25.2645 28.8745 25.343C28.9531 25.4215 28.9972 25.5281 28.9972 25.6391C28.9972 25.7501 28.9531 25.8566 28.8745 25.9352C28.796 26.0137 28.6895 26.0578 28.5785 26.0578H24.037V27.3832H28.0603C28.1166 27.3809 28.1728 27.39 28.2255 27.41C28.2783 27.4299 28.3264 27.4603 28.3671 27.4994C28.4078 27.5384 28.4401 27.5853 28.4623 27.6372C28.4844 27.689 28.4958 27.7448 28.4958 27.8012C28.4958 27.8576 28.4844 27.9134 28.4623 27.9653C28.4401 28.0171 28.4078 28.064 28.3671 28.103C28.3264 28.1421 28.2783 28.1725 28.2255 28.1925C28.1728 28.2124 28.1166 28.2215 28.0603 28.2192L24.0377 28.2199Z" fill="black"/>
<path d="M29.3408 12.6872H16.8625C14.6047 12.6872 12.5157 13.8916 11.3408 15.6881H34.6804C34.1219 14.7725 33.3376 14.0157 32.4026 13.4902C31.4676 12.9647 30.4133 12.6882 29.3408 12.6872Z" fill="black"/>
</svg>
