<svg width="36" height="35" viewBox="0 0 36 35" fill="none" xmlns="http://www.w3.org/2000/svg">
<g opacity="0.72">
<path d="M0.439941 7.21565C0.439941 5.26729 2.01939 3.68784 3.96776 3.68784H29.8384C31.7867 3.68784 33.3662 5.26729 33.3662 7.21565V10.7435H0.439941V7.21565Z" fill="black"/>
<path fill-rule="evenodd" clip-rule="evenodd" d="M26.3106 0.160004C26.9599 0.160004 27.4865 0.686495 27.4865 1.33594V6.0397C27.4865 6.68915 26.9599 7.21564 26.3106 7.21564C25.6612 7.21564 25.1346 6.68915 25.1346 6.0397V1.33594C25.1346 0.686495 25.6612 0.160004 26.3106 0.160004Z" fill="black"/>
<path fill-rule="evenodd" clip-rule="evenodd" d="M7.49576 0.160004C8.14521 0.160004 8.6717 0.686495 8.6717 1.33594V6.0397C8.6717 6.68915 8.14521 7.21564 7.49576 7.21564C6.84632 7.21564 6.31982 6.68915 6.31982 6.0397V1.33594C6.31982 0.686495 6.84632 0.160004 7.49576 0.160004Z" fill="black"/>
<path fill-rule="evenodd" clip-rule="evenodd" d="M0.439941 13.0953H33.3662V28.3825C33.3662 30.3308 31.7867 31.9104 29.8384 31.9104H3.96776C2.01939 31.9104 0.439941 30.3308 0.439941 28.3825V13.0953ZM25.1347 17.7991C25.1347 17.1497 25.6612 16.6232 26.3106 16.6232H28.6625C29.3118 16.6232 29.8384 17.1497 29.8384 17.7991C29.8384 18.4484 29.3118 18.975 28.6625 18.975H26.3106C25.6612 18.975 25.1347 18.4484 25.1347 17.7991ZM19.255 16.6232C18.6056 16.6232 18.079 17.1497 18.079 17.7991C18.079 18.4484 18.6056 18.975 19.255 18.975H21.6068C22.2562 18.975 22.7828 18.4484 22.7828 17.7991C22.7828 17.1497 22.2562 16.6232 21.6068 16.6232H19.255ZM11.0234 17.7991C11.0234 17.1497 11.5499 16.6232 12.1993 16.6232H14.5512C15.2006 16.6232 15.7271 17.1497 15.7271 17.7991C15.7271 18.4484 15.2006 18.975 14.5512 18.975H12.1993C11.5499 18.975 11.0234 18.4484 11.0234 17.7991ZM5.1437 21.3269C4.49425 21.3269 3.96776 21.8535 3.96776 22.5028C3.96776 23.1522 4.49425 23.6788 5.1437 23.6788H7.49557C8.14502 23.6788 8.67151 23.1522 8.67151 22.5028C8.67151 21.8535 8.14502 21.3269 7.49557 21.3269H5.1437ZM25.1347 22.5028C25.1347 21.8535 25.6612 21.3269 26.3106 21.3269H28.6625C29.3118 21.3269 29.8384 21.8535 29.8384 22.5028C29.8384 23.1522 29.3118 23.6788 28.6625 23.6788H26.3106C25.6612 23.6788 25.1347 23.1522 25.1347 22.5028ZM19.255 21.3269C18.6056 21.3269 18.079 21.8535 18.079 22.5028C18.079 23.1522 18.6056 23.6788 19.255 23.6788H21.6068C22.2562 23.6788 22.7828 23.1522 22.7828 22.5028C22.7828 21.8535 22.2562 21.3269 21.6068 21.3269H19.255ZM11.0234 22.5028C11.0234 21.8535 11.5499 21.3269 12.1993 21.3269H14.5512C15.2006 21.3269 15.7271 21.8535 15.7271 22.5028C15.7271 23.1522 15.2006 23.6788 14.5512 23.6788H12.1993C11.5499 23.6788 11.0234 23.1522 11.0234 22.5028ZM5.1437 26.0307C4.49425 26.0307 3.96776 26.5573 3.96776 27.2066C3.96776 27.856 4.49425 28.3825 5.1437 28.3825H7.49557C8.14502 28.3825 8.67151 27.856 8.67151 27.2066C8.67151 26.5573 8.14502 26.0307 7.49557 26.0307H5.1437ZM18.079 27.2066C18.079 26.5573 18.6056 26.0307 19.255 26.0307H21.6068C22.2562 26.0307 22.7828 26.5573 22.7828 27.2066C22.7828 27.856 22.2562 28.3825 21.6068 28.3825H19.255C18.6056 28.3825 18.079 27.856 18.079 27.2066ZM12.1993 26.0307C11.5499 26.0307 11.0234 26.5573 11.0234 27.2066C11.0234 27.856 11.5499 28.3825 12.1993 28.3825H14.5512C15.2006 28.3825 15.7271 27.856 15.7271 27.2066C15.7271 26.5573 15.2006 26.0307 14.5512 26.0307H12.1993Z" fill="black"/>
<path d="M28.688 34.662C24.7715 34.662 21.6069 31.4975 21.6069 27.5809C21.6069 23.6644 24.7715 20.4802 28.688 20.4802C32.6045 20.4802 35.7888 23.6644 35.7888 27.5809C35.7888 31.4975 32.6045 34.662 28.688 34.662ZM28.688 22.241C25.7608 22.241 23.3873 24.6543 23.3873 27.5816C23.3873 30.5088 25.7608 32.8823 28.688 32.8823C31.6153 32.8823 34.0286 30.5088 34.0286 27.5816C34.0286 24.6543 31.6153 22.241 28.688 22.241ZM30.6064 30.2905L28.0944 28.4512C27.9165 28.3126 27.738 28.0158 27.738 27.7784V23.7632C27.738 23.5455 27.9361 23.3676 28.1735 23.3676H29.0045C29.2222 23.3676 29.4001 23.5455 29.4001 23.7632V26.9278C29.4001 27.1651 29.5779 27.462 29.7564 27.6006L31.5957 28.9259C31.7735 29.0645 31.8134 29.3411 31.6748 29.5196L31.1805 30.1924C31.0419 30.3702 30.7849 30.4101 30.607 30.2911L30.6064 30.2905Z" fill="white"/>
</g>
</svg>
