<svg width="36" height="36" viewBox="0 0 36 36" fill="none" xmlns="http://www.w3.org/2000/svg">
<path d="M27.7871 16.6932C30.3656 16.6932 32.5471 13.3262 32.5471 9.35458C32.5471 5.38298 30.3656 2.00409 27.7871 2.00409C26.4 1.96851 25.6768 3.2252 25.8012 6.10609C25.896 8.34089 25.8012 10.2733 25.5167 12.022C25.2323 14.7074 25.5878 16.6932 27.7871 16.6932Z" fill="white"/>
<path d="M5.00641 13.4922H4.31282C5.1842 15.4127 6.62465 16.6991 8.21923 16.6991C10.4066 16.6991 10.7682 14.7133 10.4896 12.0281C10.2051 10.2793 10.1161 8.34099 10.2051 6.11215C10.3355 3.21943 9.61823 1.96862 8.21923 2.01016C6.04963 2.01016 4.17051 4.37535 3.61924 7.49336H7.11659C7.66787 7.49336 8.11837 7.9379 8.11837 8.49513C8.11837 9.0464 7.67383 9.4969 7.11659 9.4969H3.45923C3.46519 10.1845 3.53625 10.8544 3.6726 11.4946H5.01227C5.56355 11.4946 6.01405 11.9391 6.01405 12.4964C6.01414 13.0358 5.55768 13.4922 5.00641 13.4922Z" fill="white"/>
<path d="M8.21325 14.6955C7.08696 14.6955 5.45093 12.6149 5.45093 9.35464C5.45093 6.24845 6.93291 4.21529 8.04142 4.02557C8.1244 4.31606 8.237 4.9207 8.1896 6.02921C8.08882 8.3944 8.16585 10.4691 8.50374 12.3482C8.84751 14.2569 8.31403 14.6955 8.21325 14.6955Z" fill="black"/>
<path d="M27.6087 14.6718C27.502 14.4999 27.2708 13.7886 27.502 12.3422C27.8043 10.4571 27.9051 8.39424 27.8162 6.02318C27.7746 4.90871 27.8814 4.31003 27.9643 4.01367C29.0788 4.20339 30.7504 6.24847 30.5548 9.34274C30.2347 14.6718 27.6443 14.6778 27.6087 14.6718Z" fill="black"/>
<path d="M27.7868 0.00650277C24.8941 -0.0290751 23.7678 2.29467 23.8092 6.19512C23.833 6.63966 23.833 7.0665 23.8388 7.49334H22.9793C20.9105 7.49334 19.2211 9.17687 19.2211 11.2516V19.5505C18.4208 19.5564 17.5909 19.5564 16.7966 19.5505V11.2456C16.7966 9.17678 15.1131 7.48738 13.0384 7.48738H12.167C12.167 7.0665 12.173 6.63975 12.1966 6.18916C12.2382 2.29458 11.1119 -0.0409038 8.21907 0.000542566C4.47863 0.000542566 1.4436 4.19744 1.4436 9.34862C1.4436 14.4998 4.49046 18.6967 8.21907 18.6967C11.7994 18.4062 13.0028 15.875 12.4574 11.7079C12.3448 11.0084 12.2737 10.2614 12.2263 9.49084H13.0384C14.0106 9.49084 14.793 10.2792 14.793 11.2454V19.5265C12.2618 19.5384 8.52139 19.7696 8.52139 23.759C8.52139 27.1023 11.1355 30.0069 14.9827 31.0443V34.9981C14.9827 35.5494 15.4273 35.9999 15.9845 35.9999H20.0332C20.5845 35.9999 21.035 35.5554 21.035 34.9981V31.0443C24.8762 30.007 27.4903 27.1023 27.4903 23.759C27.4903 19.7696 23.7559 19.5443 21.2247 19.5265V11.2455C21.2247 10.2734 22.0131 9.49093 22.9793 9.49093H23.7795C23.7321 10.2675 23.661 11.0144 23.5484 11.7079C23.0089 15.8751 24.2064 18.4063 27.7867 18.6968C31.5153 18.6968 34.5562 14.4999 34.5562 9.34871C34.5562 4.19754 31.5094 0.00650277 27.7868 0.00650277ZM8.2133 16.6931C6.61871 16.6931 5.17231 15.4009 4.30689 13.4862H5.00047C5.55174 13.4862 6.00224 13.0417 6.00224 12.4844C6.00224 11.9331 5.5577 11.4826 5.00047 11.4826H3.66667C3.53628 10.8424 3.47108 10.1726 3.45329 9.48497H7.11671C7.66798 9.48497 8.11848 9.04043 8.11848 8.4832C8.11848 7.93192 7.67394 7.48142 7.11671 7.48142H3.62513C4.1764 4.36928 6.05552 1.99822 8.22512 1.99822C9.6122 1.96264 10.3354 3.21933 10.211 6.10022C10.1162 8.33502 10.211 10.2674 10.4955 12.0161C10.7681 14.7074 10.4124 16.6931 8.2133 16.6931ZM25.4809 23.7591C25.4809 26.3673 23.1573 28.6258 19.8436 29.2719C19.3753 29.3667 19.0374 29.7758 19.0374 30.2559V34.0023H16.9923V30.2559C16.9923 29.7758 16.6544 29.3608 16.1861 29.2719C12.8606 28.6317 10.537 26.3673 10.537 23.7591C10.537 22.1883 11.189 21.5243 15.2495 21.5243H20.7861C24.8289 21.5243 25.4809 22.1823 25.4809 23.7591ZM27.7868 16.6931C25.5994 16.6931 25.2378 14.7073 25.5164 12.0221C25.8009 10.2734 25.8899 8.33502 25.8009 6.10618C25.6705 3.21346 26.3878 1.96264 27.7868 2.00418C30.3654 2.00418 32.5468 5.37115 32.5468 9.34275C32.5468 13.3144 30.3654 16.6931 27.7868 16.6931Z" fill="black"/>
<path d="M19.0373 34.0023V30.2559C19.0373 29.7758 19.3752 29.3608 19.8435 29.2719C23.169 28.6317 25.4808 26.3673 25.4808 23.7591C25.4808 22.1883 24.8288 21.5243 20.7682 21.5243H15.2316C11.1711 21.5243 10.519 22.1823 10.519 23.7591C10.519 26.3673 12.8427 28.6258 16.1682 29.2719C16.6365 29.3667 16.9744 29.7758 16.9744 30.2559V34.0023H19.0373Z" fill="black"/>
</svg>
